solid Created by Gmsh
facet normal -1 0 0
  outer loop
    vertex 2 -0.5 0.55
    vertex 2 1.5 -0.45
    vertex 2 -0.5 -0.45
  endloop
endfacet
facet normal -1 0 0
  outer loop
    vertex 2 -0.5 0.55
    vertex 2 1.5 0.55
    vertex 2 1.5 -0.45
  endloop
endfacet
facet normal 1 0 0
  outer loop
    vertex 7 -0.5 0.55
    vertex 7 -0.5 -0.45
    vertex 7 1.5 -0.45
  endloop
endfacet
facet normal 1 -0 0
  outer loop
    vertex 7 -0.5 0.55
    vertex 7 1.5 -0.45
    vertex 7 1.5 0.55
  endloop
endfacet
facet normal 0 -1 -0
  outer loop
    vertex 7 -0.5 0.55
    vertex 2 -0.5 -0.45
    vertex 7 -0.5 -0.45
  endloop
endfacet
facet normal -0 -1 0
  outer loop
    vertex 7 -0.5 0.55
    vertex 2 -0.5 0.55
    vertex 2 -0.5 -0.45
  endloop
endfacet
facet normal 0 1 0
  outer loop
    vertex 7 1.5 0.55
    vertex 7 1.5 -0.45
    vertex 2 1.5 -0.45
  endloop
endfacet
facet normal 0 1 0
  outer loop
    vertex 7 1.5 0.55
    vertex 2 1.5 -0.45
    vertex 2 1.5 0.55
  endloop
endfacet
facet normal -0 0 -1
  outer loop
    vertex 7 1.5 -0.45
    vertex 2 -0.5 -0.45
    vertex 2 1.5 -0.45
  endloop
endfacet
facet normal 0 -0 -1
  outer loop
    vertex 7 1.5 -0.45
    vertex 7 -0.5 -0.45
    vertex 2 -0.5 -0.45
  endloop
endfacet
facet normal 0 0 1
  outer loop
    vertex 7 1.5 0.55
    vertex 2 1.5 0.55
    vertex 2 -0.5 0.55
  endloop
endfacet
facet normal 0 0 1
  outer loop
    vertex 7 1.5 0.55
    vertex 2 -0.5 0.55
    vertex 7 -0.5 0.55
  endloop
endfacet
endsolid Created by Gmsh
