solid Created by Gmsh
facet normal -1 0 0
  outer loop
    vertex -0.2 -0.25 0.6001
    vertex -0.2 0.25 -0.2
    vertex -0.2 -0.25 -0.2
  endloop
endfacet
facet normal -1 0 0
  outer loop
    vertex -0.2 -0.25 0.6001
    vertex -0.2 0.25 0.6001
    vertex -0.2 0.25 -0.2
  endloop
endfacet
facet normal 1 0 0
  outer loop
    vertex 1.2001 -0.25 0.6001
    vertex 1.2001 -0.25 -0.2
    vertex 1.2001 0.25 -0.2
  endloop
endfacet
facet normal 1 -0 0
  outer loop
    vertex 1.2001 -0.25 0.6001
    vertex 1.2001 0.25 -0.2
    vertex 1.2001 0.25 0.6001
  endloop
endfacet
facet normal 0 -1 -0
  outer loop
    vertex 1.2001 -0.25 0.6001
    vertex -0.2 -0.25 -0.2
    vertex 1.2001 -0.25 -0.2
  endloop
endfacet
facet normal -0 -1 0
  outer loop
    vertex 1.2001 -0.25 0.6001
    vertex -0.2 -0.25 0.6001
    vertex -0.2 -0.25 -0.2
  endloop
endfacet
facet normal 0 1 0
  outer loop
    vertex 1.2001 0.25 0.6001
    vertex 1.2001 0.25 -0.2
    vertex -0.2 0.25 -0.2
  endloop
endfacet
facet normal 0 1 0
  outer loop
    vertex 1.2001 0.25 0.6001
    vertex -0.2 0.25 -0.2
    vertex -0.2 0.25 0.6001
  endloop
endfacet
facet normal -0 0 -1
  outer loop
    vertex 1.2001 0.25 -0.2
    vertex -0.2 -0.25 -0.2
    vertex -0.2 0.25 -0.2
  endloop
endfacet
facet normal 0 -0 -1
  outer loop
    vertex 1.2001 0.25 -0.2
    vertex 1.2001 -0.25 -0.2
    vertex -0.2 -0.25 -0.2
  endloop
endfacet
facet normal 0 0 1
  outer loop
    vertex 1.2001 0.25 0.6001
    vertex -0.2 0.25 0.6001
    vertex -0.2 -0.25 0.6001
  endloop
endfacet
facet normal 0 0 1
  outer loop
    vertex 1.2001 0.25 0.6001
    vertex -0.2 -0.25 0.6001
    vertex 1.2001 -0.25 0.6001
  endloop
endfacet
endsolid Created by Gmsh
