solid Created by Gmsh
facet normal -1 0 0
  outer loop
    vertex 0 0 20
    vertex 0 96 0
    vertex 0 0 0
  endloop
endfacet
facet normal -1 0 0
  outer loop
    vertex 0 0 20
    vertex 0 96 20
    vertex 0 96 0
  endloop
endfacet
facet normal 1 0 0
  outer loop
    vertex 192 0 20
    vertex 192 0 0
    vertex 192 96 0
  endloop
endfacet
facet normal 1 -0 0
  outer loop
    vertex 192 0 20
    vertex 192 96 0
    vertex 192 96 20
  endloop
endfacet
facet normal 0 -1 -0
  outer loop
    vertex 192 0 20
    vertex 0 0 0
    vertex 192 0 0
  endloop
endfacet
facet normal -0 -1 0
  outer loop
    vertex 192 0 20
    vertex 0 0 20
    vertex 0 0 0
  endloop
endfacet
facet normal 0 1 0
  outer loop
    vertex 192 96 20
    vertex 192 96 0
    vertex 0 96 0
  endloop
endfacet
facet normal 0 1 0
  outer loop
    vertex 192 96 20
    vertex 0 96 0
    vertex 0 96 20
  endloop
endfacet
facet normal -0 0 -1
  outer loop
    vertex 192 96 0
    vertex 0 0 0
    vertex 0 96 0
  endloop
endfacet
facet normal 0 -0 -1
  outer loop
    vertex 192 96 0
    vertex 192 0 0
    vertex 0 0 0
  endloop
endfacet
facet normal 0 0 1
  outer loop
    vertex 192 96 20
    vertex 0 96 20
    vertex 0 0 20
  endloop
endfacet
facet normal 0 0 1
  outer loop
    vertex 192 96 20
    vertex 0 0 20
    vertex 192 0 20
  endloop
endfacet
endsolid Created by Gmsh
