solid Created by Gmsh
facet normal -1 0 0
  outer loop
    vertex 0 0 1
    vertex 0 4.8 0
    vertex 0 0 0
  endloop
endfacet
facet normal -1 0 0
  outer loop
    vertex 0 0 1
    vertex 0 4.8 1
    vertex 0 4.8 0
  endloop
endfacet
facet normal 1 0 0
  outer loop
    vertex 9.6 0 1
    vertex 9.6 0 0
    vertex 9.6 4.8 0
  endloop
endfacet
facet normal 1 -0 0
  outer loop
    vertex 9.6 0 1
    vertex 9.6 4.8 0
    vertex 9.6 4.8 1
  endloop
endfacet
facet normal 0 -1 -0
  outer loop
    vertex 9.6 0 1
    vertex 0 0 0
    vertex 9.6 0 0
  endloop
endfacet
facet normal -0 -1 0
  outer loop
    vertex 9.6 0 1
    vertex 0 0 1
    vertex 0 0 0
  endloop
endfacet
facet normal 0 1 0
  outer loop
    vertex 9.6 4.8 1
    vertex 9.6 4.8 0
    vertex 0 4.8 0
  endloop
endfacet
facet normal 0 1 0
  outer loop
    vertex 9.6 4.8 1
    vertex 0 4.8 0
    vertex 0 4.8 1
  endloop
endfacet
facet normal -0 0 -1
  outer loop
    vertex 9.6 4.8 0
    vertex 0 0 0
    vertex 0 4.8 0
  endloop
endfacet
facet normal 0 -0 -1
  outer loop
    vertex 9.6 4.8 0
    vertex 9.6 0 0
    vertex 0 0 0
  endloop
endfacet
facet normal 0 0 1
  outer loop
    vertex 9.6 4.8 1
    vertex 0 4.8 1
    vertex 0 0 1
  endloop
endfacet
facet normal 0 0 1
  outer loop
    vertex 9.6 4.8 1
    vertex 0 0 1
    vertex 9.6 0 1
  endloop
endfacet
endsolid Created by Gmsh
