solid Created by Gmsh
facet normal -0.039968 4.70061e-17 0.999201
  outer loop
    vertex -700.0000000005186 -500 11.99999999997926
    vertex -400.0000000014455 -500 23.99999999994218
    vertex -565.9388526825317 -242.2267931323917 17.36244589269872
  endloop
endfacet
facet normal -0.039968 4.16684e-17 0.999201
  outer loop
    vertex 52.40741422357892 245.7940727564923 42.09629656894312
    vertex -104.4785397227394 -2.803745589695495 35.82085841109041
    vertex 201.3452679148098 -4.755535848689506 48.05381071659237
  endloop
endfacet
facet normal -0.039968 3.70196e-17 0.999201
  outer loop
    vertex -100.0000000030996 -500 35.99999999987602
    vertex 50.88741599347674 -249.0346716820526 42.03549663973906
    vertex -253.6855676353991 -247.2047887072125 29.85257729458403
  endloop
endfacet
facet normal -0.039968 3.9926e-17 0.999201
  outer loop
    vertex -565.9388526825317 -242.2267931323917 17.36244589269872
    vertex -400.0000000014455 -500 23.99999999994218
    vertex -253.6855676353991 -247.2047887072125 29.85257729458403
  endloop
endfacet
facet normal -0.039968 5.03394e-17 0.999201
  outer loop
    vertex 499.9999999954077 -500 59.99999999981631
    vertex 651.0144778420006 -250.9290115702676 66.04057911368001
    vertex 351.553175006769 -251.7185233258822 54.06212700027075
  endloop
endfacet
facet normal -0.039968 2.99573e-17 0.999201
  outer loop
    vertex -400.0000000014455 -500 23.99999999994218
    vertex -100.0000000030996 -500 35.99999999987602
    vertex -253.6855676353991 -247.2047887072125 29.85257729458403
  endloop
endfacet
facet normal -0.039968 3.52044e-17 0.999201
  outer loop
    vertex 1399.999999996495 -500 95.9999999998598
    vertex 1699.999999998247 -500 107.9999999999299
    vertex 1565.284067210072 -241.8596623567941 102.6113626884029
  endloop
endfacet
facet normal -0.039968 2.92667e-17 0.999201
  outer loop
    vertex 949.9999999948155 -239.984615840043 77.99999999979261
    vertex 1099.999999994742 -500 83.99999999978968
    vertex 1252.596195299219 -246.9942126712221 90.10384781196873
  endloop
endfacet
facet normal -0.039968 6.11582e-17 0.999201
  outer loop
    vertex 1399.999999996495 -500 95.9999999998598
    vertex 1565.284067210072 -241.8596623567941 102.6113626884029
    vertex 1252.596195299219 -246.9942126712221 90.10384781196873
  endloop
endfacet
facet normal -0.039968 -1.24137e-16 0.999201
  outer loop
    vertex -99.99999999422289 500 36.00000000023108
    vertex -247.6854590928659 247.981535394536 30.09258163628533
    vertex 52.40741422357892 245.7940727564923 42.09629656894312
  endloop
endfacet
facet normal -0.039968 -1.53253e-16 0.999201
  outer loop
    vertex -99.99999999422289 500 36.00000000023108
    vertex -399.9999999961487 500 24.00000000015406
    vertex -247.6854590928659 247.981535394536 30.09258163628533
  endloop
endfacet
facet normal -0.039968 6.58512e-17 0.999201
  outer loop
    vertex 1099.999999994742 -500 83.99999999978968
    vertex 1399.999999996495 -500 95.9999999998598
    vertex 1252.596195299219 -246.9942126712221 90.10384781196873
  endloop
endfacet
facet normal -0.039968 -1.25122e-16 0.999201
  outer loop
    vertex 200.0000000058037 500 48.00000000023215
    vertex -99.99999999422289 500 36.00000000023108
    vertex 52.40741422357892 245.7940727564923 42.09629656894312
  endloop
endfacet
facet normal -0.039968 -1.28174e-16 0.999201
  outer loop
    vertex 649.9948005467385 243.3294949060736 65.99979202186951
    vertex 500.0000000054577 500 60.00000000021831
    vertex 353.1684499338702 243.1165561526842 54.12673799735477
  endloop
endfacet
facet normal -0.039968 5.22947e-17 0.999201
  outer loop
    vertex 649.9948005467385 243.3294949060736 65.99979202186951
    vertex 353.1684499338702 243.1165561526842 54.12673799735477
    vertex 506.0718882989918 -5.591920854283736 60.24287553195965
  endloop
endfacet
facet normal -0.039968 -1.30077e-16 0.999201
  outer loop
    vertex 200.0000000058037 500 48.00000000023215
    vertex 52.40741422357892 245.7940727564923 42.09629656894312
    vertex 353.1684499338702 243.1165561526842 54.12673799735477
  endloop
endfacet
facet normal -0.039968 -1.35611e-16 0.999201
  outer loop
    vertex 500.0000000054577 500 60.00000000021831
    vertex 200.0000000058037 500 48.00000000023215
    vertex 353.1684499338702 243.1165561526842 54.12673799735477
  endloop
endfacet
facet normal -0.039968 -9.4416e-17 0.999201
  outer loop
    vertex 800.0000000051091 500 72.00000000020435
    vertex 500.0000000054577 500 60.00000000021831
    vertex 649.9948005467385 243.3294949060736 65.99979202186951
  endloop
endfacet
facet normal -0.039968 4.36882e-17 0.999201
  outer loop
    vertex 799.9999999948886 -500 71.99999999979555
    vertex 1099.999999994742 -500 83.99999999978968
    vertex 949.9999999948155 -239.984615840043 77.99999999979261
  endloop
endfacet
facet normal -0.039968 4.52636e-17 0.999201
  outer loop
    vertex -100.0000000030996 -500 35.99999999987602
    vertex 199.9999999959275 -500 47.9999999998371
    vertex 50.88741599347674 -249.0346716820526 42.03549663973906
  endloop
endfacet
facet normal -0.039968 -6.78023e-17 0.999201
  outer loop
    vertex 800.0000000051091 500 72.00000000020435
    vertex 649.9948005467385 243.3294949060736 65.99979202186951
    vertex 949.9472881309767 242.7995652688896 77.99789152523904
  endloop
endfacet
facet normal -0.039968 -9.71659e-17 0.999201
  outer loop
    vertex 1100.000000004032 500 84.00000000016129
    vertex 800.0000000051091 500 72.00000000020435
    vertex 949.9472881309767 242.7995652688896 77.99789152523904
  endloop
endfacet
facet normal -0.039968 -1.53265e-16 0.999201
  outer loop
    vertex 1400.000000001416 500 96.00000000005664
    vertex 1100.000000004032 500 84.00000000016129
    vertex 1248.894161433964 243.0598009012826 89.95576645735852
  endloop
endfacet
facet normal -0.039968 -1.44859e-16 0.999201
  outer loop
    vertex 1248.894161433964 243.0598009012826 89.95576645735852
    vertex 1100.000000004032 500 84.00000000016129
    vertex 949.9472881309767 242.7995652688896 77.99789152523904
  endloop
endfacet
facet normal -0.039968 -1.11492e-16 0.999201
  outer loop
    vertex -399.9999999961487 500 24.00000000015406
    vertex -699.9999999980741 500 12.00000000007702
    vertex -565.7985616046611 241.8856172433708 17.36805753581352
  endloop
endfacet
facet normal -0.039968 -1.46301e-16 0.999201
  outer loop
    vertex 1700.000000000344 500 108.0000000000138
    vertex 1400.000000001416 500 96.00000000005664
    vertex 1565.951507476634 241.1820595218283 102.6380602990653
  endloop
endfacet
facet normal -0.039968 4.54384e-17 0.999201
  outer loop
    vertex -104.4785397227394 -2.803745589695495 35.82085841109041
    vertex 50.88741599347674 -249.0346716820526 42.03549663973906
    vertex 201.3452679148098 -4.755535848689506 48.05381071659237
  endloop
endfacet
facet normal -0.039968 5.35405e-17 0.999201
  outer loop
    vertex -565.9388526825317 -242.2267931323917 17.36244589269872
    vertex -253.6855676353991 -247.2047887072125 29.85257729458403
    vertex -391.6374201603211 -0.3946957985600256 24.33450319358713
  endloop
endfacet
facet normal -0.039968 2.77879e-17 0.999201
  outer loop
    vertex 651.0144778420006 -250.9290115702676 66.04057911368001
    vertex 506.0718882989918 -5.591920854283736 60.24287553195965
    vertex 351.553175006769 -251.7185233258822 54.06212700027075
  endloop
endfacet
facet normal -0.039968 3.63717e-17 0.999201
  outer loop
    vertex 353.1684499338702 243.1165561526842 54.12673799735477
    vertex 52.40741422357892 245.7940727564923 42.09629656894312
    vertex 201.3452679148098 -4.755535848689506 48.05381071659237
  endloop
endfacet
facet normal -0.039968 5.777e-17 0.999201
  outer loop
    vertex 499.9999999954077 -500 59.99999999981631
    vertex 799.9999999948886 -500 71.99999999979555
    vertex 651.0144778420006 -250.9290115702676 66.04057911368001
  endloop
endfacet
facet normal -0.039968 4.23773e-17 0.999201
  outer loop
    vertex 50.88741599347674 -249.0346716820526 42.03549663973906
    vertex 199.9999999959275 -500 47.9999999998371
    vertex 351.553175006769 -251.7185233258822 54.06212700027075
  endloop
endfacet
facet normal -0.039968 5.33772e-17 0.999201
  outer loop
    vertex 649.9948005467385 243.3294949060736 65.99979202186951
    vertex 506.0718882989918 -5.591920854283736 60.24287553195965
    vertex 800.0000000062197 0.01597314800256466 72.00000000024878
  endloop
endfacet
facet normal -0.039968 3.64913e-17 0.999201
  outer loop
    vertex -253.6855676353991 -247.2047887072125 29.85257729458403
    vertex 50.88741599347674 -249.0346716820526 42.03549663973906
    vertex -104.4785397227394 -2.803745589695495 35.82085841109041
  endloop
endfacet
facet normal -0.039968 5.15311e-17 0.999201
  outer loop
    vertex -391.6374201603211 -0.3946957985600256 24.33450319358713
    vertex -253.6855676353991 -247.2047887072125 29.85257729458403
    vertex -104.4785397227394 -2.803745589695495 35.82085841109041
  endloop
endfacet
facet normal -0.039968 -1.65284e-16 0.999201
  outer loop
    vertex -247.6854590928659 247.981535394536 30.09258163628533
    vertex -399.9999999961487 500 24.00000000015406
    vertex -565.7985616046611 241.8856172433708 17.36805753581352
  endloop
endfacet
facet normal -0.039968 0 0.999201
  outer loop
    vertex -1000 3.223021849407814e-11 0
    vertex -1000 -250.0000000000122 0
    vertex -796.4515798640999 -117.1465842724359 8.141936805435986
  endloop
endfacet
facet normal -0.039968 -1.43127e-16 0.999201
  outer loop
    vertex 1400.000000001416 500 96.00000000005664
    vertex 1248.894161433964 243.0598009012826 89.95576645735852
    vertex 1565.951507476634 241.1820595218283 102.6380602990653
  endloop
endfacet
facet normal -0.039968 0 0.999201
  outer loop
    vertex -1000 250.0000000000219 0
    vertex -1000 3.223021849407814e-11 0
    vertex -789.7053774675792 117.2653272713252 8.411784901296809
  endloop
endfacet
facet normal -0.039968 5.45656e-17 0.999201
  outer loop
    vertex 52.40741422357892 245.7940727564923 42.09629656894312
    vertex -247.6854590928659 247.981535394536 30.09258163628533
    vertex -104.4785397227394 -2.803745589695495 35.82085841109041
  endloop
endfacet
facet normal -0.039968 5.38894e-17 0.999201
  outer loop
    vertex -247.6854590928659 247.981535394536 30.09258163628533
    vertex -391.6374201603211 -0.3946957985600256 24.33450319358713
    vertex -104.4785397227394 -2.803745589695495 35.82085841109041
  endloop
endfacet
facet normal -0.039968 0 0.999201
  outer loop
    vertex 2000 -250.0000000000219 120
    vertex 2000 -3.223021849407814e-11 120
    vertex 1796.333423875369 -117.0853958099018 111.8533369550147
  endloop
endfacet
facet normal -0.039968 4.0708e-17 0.999201
  outer loop
    vertex -247.6854590928659 247.981535394536 30.09258163628533
    vertex -565.7985616046611 241.8856172433708 17.36805753581352
    vertex -391.6374201603211 -0.3946957985600256 24.33450319358713
  endloop
endfacet
facet normal -0.039968 0 0.999201
  outer loop
    vertex 2000 -3.223021849407814e-11 120
    vertex 2000 250.0000000000122 120
    vertex 1789.697641688354 117.265327271683 111.5879056675341
  endloop
endfacet
facet normal -0.039968 9.34635e-18 0.999201
  outer loop
    vertex 506.0718882989918 -5.591920854283736 60.24287553195965
    vertex 651.0144778420006 -250.9290115702676 66.04057911368001
    vertex 800.0000000062197 0.01597314800256466 72.00000000024878
  endloop
endfacet
facet normal -0.039968 5.5375e-17 0.999201
  outer loop
    vertex 201.3452679148098 -4.755535848689506 48.05381071659237
    vertex 50.88741599347674 -249.0346716820526 42.03549663973906
    vertex 351.553175006769 -251.7185233258822 54.06212700027075
  endloop
endfacet
facet normal -0.039968 5.10475e-17 0.999201
  outer loop
    vertex 506.0718882989918 -5.591920854283736 60.24287553195965
    vertex 353.1684499338702 243.1165561526842 54.12673799735477
    vertex 201.3452679148098 -4.755535848689506 48.05381071659237
  endloop
endfacet
facet normal -0.039968 6.56804e-17 0.999201
  outer loop
    vertex 799.9999999948886 -500 71.99999999979555
    vertex 949.9999999948155 -239.984615840043 77.99999999979261
    vertex 651.0144778420006 -250.9290115702676 66.04057911368001
  endloop
endfacet
facet normal -0.039968 -5.95727e-18 0.999201
  outer loop
    vertex 1252.596195299219 -246.9942126712221 90.10384781196873
    vertex 1565.284067210072 -241.8596623567941 102.6113626884029
    vertex 1390.86004111736 -0.794043523604726 95.63440164469438
  endloop
endfacet
facet normal -0.039968 1.85147e-17 0.999201
  outer loop
    vertex 949.9999999948155 -239.984615840043 77.99999999979261
    vertex 1252.596195299219 -246.9942126712221 90.10384781196873
    vertex 1100.243189740915 -0.1522465367010379 84.00972758963658
  endloop
endfacet
facet normal -0.039968 4.98506e-17 0.999201
  outer loop
    vertex 1100.243189740915 -0.1522465367010379 84.00972758963658
    vertex 949.9472881309767 242.7995652688896 77.99789152523904
    vertex 800.0000000062197 0.01597314800256466 72.00000000024878
  endloop
endfacet
facet normal -0.039968 -1.26854e-17 0.999201
  outer loop
    vertex 1252.596195299219 -246.9942126712221 90.10384781196873
    vertex 1390.86004111736 -0.794043523604726 95.63440164469438
    vertex 1100.243189740915 -0.1522465367010379 84.00972758963658
  endloop
endfacet
facet normal -0.039968 9.46196e-18 0.999201
  outer loop
    vertex 949.9999999948155 -239.984615840043 77.99999999979261
    vertex 1100.243189740915 -0.1522465367010379 84.00972758963658
    vertex 800.0000000062197 0.01597314800256466 72.00000000024878
  endloop
endfacet
facet normal -0.039968 5.00225e-17 0.999201
  outer loop
    vertex 1248.894161433964 243.0598009012826 89.95576645735852
    vertex 949.9472881309767 242.7995652688896 77.99789152523904
    vertex 1100.243189740915 -0.1522465367010379 84.00972758963658
  endloop
endfacet
facet normal -0.039968 8.66693e-17 0.999201
  outer loop
    vertex 1390.86004111736 -0.794043523604726 95.63440164469438
    vertex 1248.894161433964 243.0598009012826 89.95576645735852
    vertex 1100.243189740915 -0.1522465367010379 84.00972758963658
  endloop
endfacet
facet normal -0.039968 4.27027e-17 0.999201
  outer loop
    vertex 199.9999999959275 -500 47.9999999998371
    vertex 499.9999999954077 -500 59.99999999981631
    vertex 351.553175006769 -251.7185233258822 54.06212700027075
  endloop
endfacet
facet normal -0.039968 6.85599e-17 0.999201
  outer loop
    vertex 949.9472881309767 242.7995652688896 77.99789152523904
    vertex 649.9948005467385 243.3294949060736 65.99979202186951
    vertex 800.0000000062197 0.01597314800256466 72.00000000024878
  endloop
endfacet
facet normal -0.039968 3.40123e-17 0.999201
  outer loop
    vertex -1000 -500 0
    vertex -700.0000000005186 -500 11.99999999997926
    vertex -812.47808650943 -321.8746754809679 7.500876539622794
  endloop
endfacet
facet normal -0.039968 -1.48767e-16 0.999201
  outer loop
    vertex -699.9999999980741 500 12.00000000007702
    vertex -1000 500 0
    vertex -811.1007878140626 321.8301889029436 7.555968487437461
  endloop
endfacet
facet normal -0.039968 -1.6998e-17 0.999201
  outer loop
    vertex 1699.999999998247 -500 107.9999999999299
    vertex 2000 -500 120
    vertex 1812.323498216737 -321.7890116333436 112.4929399286695
  endloop
endfacet
facet normal -0.039968 -2.88804e-16 0.999201
  outer loop
    vertex 2000 500 120
    vertex 1700.000000000344 500 108.0000000000138
    vertex 1811.129829833066 321.6894773587047 112.4451931933226
  endloop
endfacet
facet normal -0.039968 1.06152e-16 0.999201
  outer loop
    vertex 1565.951507476634 241.1820595218283 102.6380602990653
    vertex 1248.894161433964 243.0598009012826 89.95576645735852
    vertex 1390.86004111736 -0.794043523604726 95.63440164469438
  endloop
endfacet
facet normal -0.039968 4.57011e-17 0.999201
  outer loop
    vertex -789.7053774675792 117.2653272713252 8.411784901296809
    vertex -565.7985616046611 241.8856172433708 17.36805753581352
    vertex -811.1007878140626 321.8301889029436 7.555968487437461
  endloop
endfacet
facet normal -0.039968 2.62008e-17 0.999201
  outer loop
    vertex -789.7053774675792 117.2653272713252 8.411784901296809
    vertex -1000 3.223021849407814e-11 0
    vertex -796.4515798640999 -117.1465842724359 8.141936805435986
  endloop
endfacet
facet normal -0.039968 -9.50461e-17 0.999201
  outer loop
    vertex -565.7985616046611 241.8856172433708 17.36805753581352
    vertex -699.9999999980741 500 12.00000000007702
    vertex -811.1007878140626 321.8301889029436 7.555968487437461
  endloop
endfacet
facet normal -0.039968 -3.09533e-18 0.999201
  outer loop
    vertex 651.0144778420006 -250.9290115702676 66.04057911368001
    vertex 949.9999999948155 -239.984615840043 77.99999999979261
    vertex 800.0000000062197 0.01597314800256466 72.00000000024878
  endloop
endfacet
facet normal -0.039968 4.53594e-17 0.999201
  outer loop
    vertex 506.0718882989918 -5.591920854283736 60.24287553195965
    vertex 201.3452679148098 -4.755535848689506 48.05381071659237
    vertex 351.553175006769 -251.7185233258822 54.06212700027075
  endloop
endfacet
facet normal -0.039968 -2.20011e-16 0.999201
  outer loop
    vertex 1700.000000000344 500 108.0000000000138
    vertex 1565.951507476634 241.1820595218283 102.6380602990653
    vertex 1811.129829833066 321.6894773587047 112.4451931933226
  endloop
endfacet
facet normal -0.039968 3.75563e-17 0.999201
  outer loop
    vertex 1565.951507476634 241.1820595218283 102.6380602990653
    vertex 1789.697641688354 117.265327271683 111.5879056675341
    vertex 1811.129829833066 321.6894773587047 112.4451931933226
  endloop
endfacet
facet normal -0.039968 7.49401e-17 0.999201
  outer loop
    vertex 2000 -3.223021849407814e-11 120
    vertex 1789.697641688354 117.265327271683 111.5879056675341
    vertex 1796.333423875369 -117.0853958099018 111.8533369550147
  endloop
endfacet
facet normal -0.039968 4.2969e-17 0.999201
  outer loop
    vertex -700.0000000005186 -500 11.99999999997926
    vertex -565.9388526825317 -242.2267931323917 17.36244589269872
    vertex -812.47808650943 -321.8746754809679 7.500876539622794
  endloop
endfacet
facet normal -0.039968 0 0.999201
  outer loop
    vertex -1000 -250.0000000000122 0
    vertex -1000 -500 0
    vertex -812.47808650943 -321.8746754809679 7.500876539622794
  endloop
endfacet
facet normal -0.039968 0 0.999201
  outer loop
    vertex -1000 500 0
    vertex -1000 250.0000000000219 0
    vertex -811.1007878140626 321.8301889029436 7.555968487437461
  endloop
endfacet
facet normal -0.039968 0 0.999201
  outer loop
    vertex 2000 -500 120
    vertex 2000 -250.0000000000219 120
    vertex 1812.323498216737 -321.7890116333436 112.4929399286695
  endloop
endfacet
facet normal -0.039968 0 0.999201
  outer loop
    vertex 2000 250.0000000000122 120
    vertex 2000 500 120
    vertex 1811.129829833066 321.6894773587047 112.4451931933226
  endloop
endfacet
facet normal -0.039968 2.3899e-17 0.999201
  outer loop
    vertex -565.7985616046611 241.8856172433708 17.36805753581352
    vertex -789.7053774675792 117.2653272713252 8.411784901296809
    vertex -619.1438388895218 -0.08816124123226188 15.2342464444191
  endloop
endfacet
facet normal -0.039968 2.1432e-17 0.999201
  outer loop
    vertex 1565.284067210072 -241.8596623567941 102.6113626884029
    vertex 1699.999999998247 -500 107.9999999999299
    vertex 1812.323498216737 -321.7890116333436 112.4929399286695
  endloop
endfacet
facet normal -0.039968 5.5416e-17 0.999201
  outer loop
    vertex -565.9388526825317 -242.2267931323917 17.36244589269872
    vertex -796.4515798640999 -117.1465842724359 8.141936805435986
    vertex -812.47808650943 -321.8746754809679 7.500876539622794
  endloop
endfacet
facet normal -0.039968 6.22576e-17 0.999201
  outer loop
    vertex 1789.697641688354 117.265327271683 111.5879056675341
    vertex 1565.951507476634 241.1820595218283 102.6380602990653
    vertex 1618.929847493499 -0.1845306995476159 104.7571938997399
  endloop
endfacet
facet normal -0.039968 2.88802e-17 0.999201
  outer loop
    vertex -391.6374201603211 -0.3946957985600256 24.33450319358713
    vertex -565.7985616046611 241.8856172433708 17.36805753581352
    vertex -619.1438388895218 -0.08816124123226188 15.2342464444191
  endloop
endfacet
facet normal -0.039968 5.46613e-17 0.999201
  outer loop
    vertex -565.9388526825317 -242.2267931323917 17.36244589269872
    vertex -391.6374201603211 -0.3946957985600256 24.33450319358713
    vertex -619.1438388895218 -0.08816124123226188 15.2342464444191
  endloop
endfacet
facet normal -0.039968 1.3885e-16 0.999201
  outer loop
    vertex 1796.333423875369 -117.0853958099018 111.8533369550147
    vertex 1565.284067210072 -241.8596623567941 102.6113626884029
    vertex 1812.323498216737 -321.7890116333436 112.4929399286695
  endloop
endfacet
facet normal -0.039968 5.77459e-17 0.999201
  outer loop
    vertex 1565.951507476634 241.1820595218283 102.6380602990653
    vertex 1390.86004111736 -0.794043523604726 95.63440164469438
    vertex 1618.929847493499 -0.1845306995476159 104.7571938997399
  endloop
endfacet
facet normal -0.039968 5.54565e-17 0.999201
  outer loop
    vertex -796.4515798640999 -117.1465842724359 8.141936805435986
    vertex -565.9388526825317 -242.2267931323917 17.36244589269872
    vertex -619.1438388895218 -0.08816124123226188 15.2342464444191
  endloop
endfacet
facet normal -0.039968 6.18646e-17 0.999201
  outer loop
    vertex 1390.86004111736 -0.794043523604726 95.63440164469438
    vertex 1565.284067210072 -241.8596623567941 102.6113626884029
    vertex 1618.929847493499 -0.1845306995476159 104.7571938997399
  endloop
endfacet
facet normal -0.039968 6.70316e-17 0.999201
  outer loop
    vertex 1565.284067210072 -241.8596623567941 102.6113626884029
    vertex 1796.333423875369 -117.0853958099018 111.8533369550147
    vertex 1618.929847493499 -0.1845306995476159 104.7571938997399
  endloop
endfacet
facet normal -0.039968 5.17091e-17 0.999201
  outer loop
    vertex -796.4515798640999 -117.1465842724359 8.141936805435986
    vertex -1000 -250.0000000000122 0
    vertex -812.47808650943 -321.8746754809679 7.500876539622794
  endloop
endfacet
facet normal -0.039968 6.21995e-17 0.999201
  outer loop
    vertex -1000 250.0000000000219 0
    vertex -789.7053774675792 117.2653272713252 8.411784901296809
    vertex -811.1007878140626 321.8301889029436 7.555968487437461
  endloop
endfacet
facet normal -0.039968 1.37811e-16 0.999201
  outer loop
    vertex 2000 -250.0000000000219 120
    vertex 1796.333423875369 -117.0853958099018 111.8533369550147
    vertex 1812.323498216737 -321.7890116333436 112.4929399286695
  endloop
endfacet
facet normal -0.039968 6.29578e-17 0.999201
  outer loop
    vertex 1789.697641688354 117.265327271683 111.5879056675341
    vertex 2000 250.0000000000122 120
    vertex 1811.129829833066 321.6894773587047 112.4451931933226
  endloop
endfacet
facet normal -0.039968 2.85569e-17 0.999201
  outer loop
    vertex -789.7053774675792 117.2653272713252 8.411784901296809
    vertex -796.4515798640999 -117.1465842724359 8.141936805435986
    vertex -619.1438388895218 -0.08816124123226188 15.2342464444191
  endloop
endfacet
facet normal -0.039968 7.88302e-17 0.999201
  outer loop
    vertex 1796.333423875369 -117.0853958099018 111.8533369550147
    vertex 1789.697641688354 117.265327271683 111.5879056675341
    vertex 1618.929847493499 -0.1845306995476159 104.7571938997399
  endloop
endfacet
endsolid Created by Gmsh
