solid Created by Gmsh
facet normal 0 0 1
  outer loop
    vertex -700.0000000005191 -500 0
    vertex -400.0000000014467 -500 0
    vertex -565.8877309870081 -242.2443998190081 0
  endloop
endfacet
facet normal 0 0 1
  outer loop
    vertex 52.35765730296098 245.8807487178035 0
    vertex -104.464468442764 -2.788057930443301 0
    vertex 201.3038482847476 -4.665389147797683 0
  endloop
endfacet
facet normal 0 -0 1
  outer loop
    vertex -100.0000000031034 -500 0
    vertex 50.85334647486652 -249.0639593896969 0
    vertex -253.9650182146939 -246.0161424320476 0
  endloop
endfacet
facet normal 0 0 1
  outer loop
    vertex -565.8877309870081 -242.2443998190081 0
    vertex -400.0000000014467 -500 0
    vertex -253.9650182146939 -246.0161424320476 0
  endloop
endfacet
facet normal 0 -0 1
  outer loop
    vertex 499.9999999954055 -500 0
    vertex 650.994876229425 -250.9098346604759 0
    vertex 351.5179437369202 -251.6858398328159 0
  endloop
endfacet
facet normal 0 0 1
  outer loop
    vertex -400.0000000014467 -500 0
    vertex -100.0000000031034 -500 0
    vertex -253.9650182146939 -246.0161424320476 0
  endloop
endfacet
facet normal 0 0 1
  outer loop
    vertex 1399.999999996493 -500 0
    vertex 1699.999999998246 -500 0
    vertex 1565.23901771508 -241.8784851242854 0
  endloop
endfacet
facet normal 0 0 1
  outer loop
    vertex 949.9999999948133 -240.1923788649564 0
    vertex 1099.99999999474 -500 0
    vertex 1252.590259883014 -247.0297309602936 0
  endloop
endfacet
facet normal 0 -0 1
  outer loop
    vertex 1399.999999996493 -500 0
    vertex 1565.23901771508 -241.8784851242854 0
    vertex 1252.590259883014 -247.0297309602936 0
  endloop
endfacet
facet normal 0 0 1
  outer loop
    vertex -99.99999999422107 500 0
    vertex -247.6807838729824 248.0543869217665 0
    vertex 52.35765730296098 245.8807487178035 0
  endloop
endfacet
facet normal 0 0 1
  outer loop
    vertex -99.99999999422107 500 0
    vertex -399.9999999961474 500 0
    vertex -247.6807838729824 248.0543869217665 0
  endloop
endfacet
facet normal 0 0 1
  outer loop
    vertex 1099.99999999474 -500 0
    vertex 1399.999999996493 -500 0
    vertex 1252.590259883014 -247.0297309602936 0
  endloop
endfacet
facet normal 0 0 1
  outer loop
    vertex 200.0000000058058 500 0
    vertex -99.99999999422107 500 0
    vertex 52.35765730296098 245.8807487178035 0
  endloop
endfacet
facet normal 0 0 1
  outer loop
    vertex 649.9949278496453 243.4677480438914 0
    vertex 500.0000000054599 500 0
    vertex 353.1072969882089 243.2605719604301 0
  endloop
endfacet
facet normal 0 0 1
  outer loop
    vertex 649.9949278496453 243.4677480438914 0
    vertex 353.1072969882089 243.2605719604301 0
    vertex 505.9555914411526 -5.475855798924997 0
  endloop
endfacet
facet normal 0 0 1
  outer loop
    vertex 200.0000000058058 500 0
    vertex 52.35765730296098 245.8807487178035 0
    vertex 353.1072969882089 243.2605719604301 0
  endloop
endfacet
facet normal 0 0 1
  outer loop
    vertex 500.0000000054599 500 0
    vertex 200.0000000058058 500 0
    vertex 353.1072969882089 243.2605719604301 0
  endloop
endfacet
facet normal 0 0 1
  outer loop
    vertex 800.0000000051141 500 0
    vertex 500.0000000054599 500 0
    vertex 649.9949278496453 243.4677480438914 0
  endloop
endfacet
facet normal 0 0 1
  outer loop
    vertex 799.9999999948864 -500 0
    vertex 1099.99999999474 -500 0
    vertex 949.9999999948133 -240.1923788649564 0
  endloop
endfacet
facet normal 0 0 1
  outer loop
    vertex -100.0000000031034 -500 0
    vertex 199.9999999959246 -500 0
    vertex 50.85334647486652 -249.0639593896969 0
  endloop
endfacet
facet normal 0 0 1
  outer loop
    vertex 800.0000000051141 500 0
    vertex 649.9949278496453 243.4677480438914 0
    vertex 949.9469399090043 242.9497882647734 0
  endloop
endfacet
facet normal 0 0 1
  outer loop
    vertex 1100.00000000404 500 0
    vertex 800.0000000051141 500 0
    vertex 949.9469399090043 242.9497882647734 0
  endloop
endfacet
facet normal 0 0 1
  outer loop
    vertex 1400.00000000142 500 0
    vertex 1100.00000000404 500 0
    vertex 1248.894133577412 243.2177337514852 0
  endloop
endfacet
facet normal 0 0 1
  outer loop
    vertex 1248.894133577412 243.2177337514852 0
    vertex 1100.00000000404 500 0
    vertex 949.9469399090043 242.9497882647734 0
  endloop
endfacet
facet normal 0 0 1
  outer loop
    vertex -399.9999999961474 500 0
    vertex -699.9999999980741 500 0
    vertex -565.7659485608798 241.8916822753897 0
  endloop
endfacet
facet normal 0 0 1
  outer loop
    vertex 1700.000000000346 500 0
    vertex 1400.00000000142 500 0
    vertex 1565.92410558939 241.2003841034677 0
  endloop
endfacet
facet normal 0 0 1
  outer loop
    vertex -104.464468442764 -2.788057930443301 0
    vertex 50.85334647486652 -249.0639593896969 0
    vertex 201.3038482847476 -4.665389147797683 0
  endloop
endfacet
facet normal -0 0 1
  outer loop
    vertex -565.8877309870081 -242.2443998190081 0
    vertex -253.9650182146939 -246.0161424320476 0
    vertex -391.6590772059267 -0.1837551640515338 0
  endloop
endfacet
facet normal 0 0 1
  outer loop
    vertex 650.994876229425 -250.9098346604759 0
    vertex 505.9555914411526 -5.475855798924997 0
    vertex 351.5179437369202 -251.6858398328159 0
  endloop
endfacet
facet normal 0 0 1
  outer loop
    vertex 353.1072969882089 243.2605719604301 0
    vertex 52.35765730296098 245.8807487178035 0
    vertex 201.3038482847476 -4.665389147797683 0
  endloop
endfacet
facet normal 0 0 1
  outer loop
    vertex 499.9999999954055 -500 0
    vertex 799.9999999948864 -500 0
    vertex 650.994876229425 -250.9098346604759 0
  endloop
endfacet
facet normal 0 0 1
  outer loop
    vertex 50.85334647486652 -249.0639593896969 0
    vertex 199.9999999959246 -500 0
    vertex 351.5179437369202 -251.6858398328159 0
  endloop
endfacet
facet normal 0 0 1
  outer loop
    vertex 649.9949278496453 243.4677480438914 0
    vertex 505.9555914411526 -5.475855798924997 0
    vertex 800.0000000062321 0.01500914698036127 0
  endloop
endfacet
facet normal -0 0 1
  outer loop
    vertex -253.9650182146939 -246.0161424320476 0
    vertex 50.85334647486652 -249.0639593896969 0
    vertex -104.464468442764 -2.788057930443301 0
  endloop
endfacet
facet normal 0 0 1
  outer loop
    vertex -391.6590772059267 -0.1837551640515338 0
    vertex -253.9650182146939 -246.0161424320476 0
    vertex -104.464468442764 -2.788057930443301 0
  endloop
endfacet
facet normal 0 0 1
  outer loop
    vertex -1000 3.33102434524335e-11 0
    vertex -1000 -250.0000000000111 0
    vertex -796.4064709689476 -117.1351027987482 0
  endloop
endfacet
facet normal 0 0 1
  outer loop
    vertex -247.6807838729824 248.0543869217665 0
    vertex -399.9999999961474 500 0
    vertex -565.7659485608798 241.8916822753897 0
  endloop
endfacet
facet normal 0 0 1
  outer loop
    vertex 1400.00000000142 500 0
    vertex 1248.894133577412 243.2177337514852 0
    vertex 1565.92410558939 241.2003841034677 0
  endloop
endfacet
facet normal 0 0 1
  outer loop
    vertex -1000 250.0000000000222 0
    vertex -1000 3.33102434524335e-11 0
    vertex -789.6478882083057 117.2890151796052 0
  endloop
endfacet
facet normal 0 0 1
  outer loop
    vertex 52.35765730296098 245.8807487178035 0
    vertex -247.6807838729824 248.0543869217665 0
    vertex -104.464468442764 -2.788057930443301 0
  endloop
endfacet
facet normal 0 0 1
  outer loop
    vertex -247.6807838729824 248.0543869217665 0
    vertex -391.6590772059267 -0.1837551640515338 0
    vertex -104.464468442764 -2.788057930443301 0
  endloop
endfacet
facet normal 0 -0 1
  outer loop
    vertex 2000 -250.0000000000222 0
    vertex 2000 -3.33102434524335e-11 0
    vertex 1796.291406472043 -117.074117016361 0
  endloop
endfacet
facet normal 0 0 1
  outer loop
    vertex -247.6807838729824 248.0543869217665 0
    vertex -565.7659485608798 241.8916822753897 0
    vertex -391.6590772059267 -0.1837551640515338 0
  endloop
endfacet
facet normal -0 0 1
  outer loop
    vertex 505.9555914411526 -5.475855798924997 0
    vertex 650.994876229425 -250.9098346604759 0
    vertex 800.0000000062321 0.01500914698036127 0
  endloop
endfacet
facet normal 0 0 1
  outer loop
    vertex 201.3038482847476 -4.665389147797683 0
    vertex 50.85334647486652 -249.0639593896969 0
    vertex 351.5179437369202 -251.6858398328159 0
  endloop
endfacet
facet normal 0 -0 1
  outer loop
    vertex 2000 -3.33102434524335e-11 0
    vertex 2000 250.0000000000111 0
    vertex 1789.641934821999 117.2890151799616 0
  endloop
endfacet
facet normal 0 0 1
  outer loop
    vertex 505.9555914411526 -5.475855798924997 0
    vertex 353.1072969882089 243.2605719604301 0
    vertex 201.3038482847476 -4.665389147797683 0
  endloop
endfacet
facet normal 0 -0 1
  outer loop
    vertex 799.9999999948864 -500 0
    vertex 949.9999999948133 -240.1923788649564 0
    vertex 650.994876229425 -250.9098346604759 0
  endloop
endfacet
facet normal 0 0 1
  outer loop
    vertex 1252.590259883014 -247.0297309602936 0
    vertex 1565.23901771508 -241.8784851242854 0
    vertex 1390.83994446119 -0.7730546069716706 0
  endloop
endfacet
facet normal -0 0 1
  outer loop
    vertex 949.9999999948133 -240.1923788649564 0
    vertex 1252.590259883014 -247.0297309602936 0
    vertex 1100.237357167882 -0.1482294121808536 0
  endloop
endfacet
facet normal 0 -0 1
  outer loop
    vertex 1252.590259883014 -247.0297309602936 0
    vertex 1390.83994446119 -0.7730546069716706 0
    vertex 1100.237357167882 -0.1482294121808536 0
  endloop
endfacet
facet normal 0 0 1
  outer loop
    vertex 1100.237357167882 -0.1482294121808536 0
    vertex 949.9469399090043 242.9497882647734 0
    vertex 800.0000000062321 0.01500914698036127 0
  endloop
endfacet
facet normal 0 -0 1
  outer loop
    vertex 949.9999999948133 -240.1923788649564 0
    vertex 1100.237357167882 -0.1482294121808536 0
    vertex 800.0000000062321 0.01500914698036127 0
  endloop
endfacet
facet normal 0 0 1
  outer loop
    vertex 1248.894133577412 243.2177337514852 0
    vertex 949.9469399090043 242.9497882647734 0
    vertex 1100.237357167882 -0.1482294121808536 0
  endloop
endfacet
facet normal 0 0 1
  outer loop
    vertex 1390.83994446119 -0.7730546069716706 0
    vertex 1248.894133577412 243.2177337514852 0
    vertex 1100.237357167882 -0.1482294121808536 0
  endloop
endfacet
facet normal 0 0 1
  outer loop
    vertex 199.9999999959246 -500 0
    vertex 499.9999999954055 -500 0
    vertex 351.5179437369202 -251.6858398328159 0
  endloop
endfacet
facet normal 0 0 1
  outer loop
    vertex 949.9469399090043 242.9497882647734 0
    vertex 649.9949278496453 243.4677480438914 0
    vertex 800.0000000062321 0.01500914698036127 0
  endloop
endfacet
facet normal 0 0 1
  outer loop
    vertex -1000 -500 0
    vertex -700.0000000005191 -500 0
    vertex -812.4588403912951 -321.8759005235535 0
  endloop
endfacet
facet normal 0 0 1
  outer loop
    vertex -699.9999999980741 500 0
    vertex -1000 500 0
    vertex -811.0827673534518 321.8361394910035 0
  endloop
endfacet
facet normal 0 0 1
  outer loop
    vertex 1699.999999998246 -500 0
    vertex 2000 -500 0
    vertex 1812.306084837074 -321.7905204281337 0
  endloop
endfacet
facet normal 0 0 1
  outer loop
    vertex 1565.92410558939 241.2003841034677 0
    vertex 1248.894133577412 243.2177337514852 0
    vertex 1390.83994446119 -0.7730546069716706 0
  endloop
endfacet
facet normal 0 0 1
  outer loop
    vertex 2000 500 0
    vertex 1700.000000000346 500 0
    vertex 1811.113208082347 321.6978798566881 0
  endloop
endfacet
facet normal 0 -0 1
  outer loop
    vertex -789.6478882083057 117.2890151796052 0
    vertex -565.7659485608798 241.8916822753897 0
    vertex -811.0827673534518 321.8361394910035 0
  endloop
endfacet
facet normal 0 0 1
  outer loop
    vertex -789.6478882083057 117.2890151796052 0
    vertex -1000 3.33102434524335e-11 0
    vertex -796.4064709689476 -117.1351027987482 0
  endloop
endfacet
facet normal 0 0 1
  outer loop
    vertex -565.7659485608798 241.8916822753897 0
    vertex -699.9999999980741 500 0
    vertex -811.0827673534518 321.8361394910035 0
  endloop
endfacet
facet normal 0 0 1
  outer loop
    vertex 650.994876229425 -250.9098346604759 0
    vertex 949.9999999948133 -240.1923788649564 0
    vertex 800.0000000062321 0.01500914698036127 0
  endloop
endfacet
facet normal 0 0 1
  outer loop
    vertex 505.9555914411526 -5.475855798924997 0
    vertex 201.3038482847476 -4.665389147797683 0
    vertex 351.5179437369202 -251.6858398328159 0
  endloop
endfacet
facet normal 0 0 1
  outer loop
    vertex 1700.000000000346 500 0
    vertex 1565.92410558939 241.2003841034677 0
    vertex 1811.113208082347 321.6978798566881 0
  endloop
endfacet
facet normal -0 0 1
  outer loop
    vertex 1565.92410558939 241.2003841034677 0
    vertex 1789.641934821999 117.2890151799616 0
    vertex 1811.113208082347 321.6978798566881 0
  endloop
endfacet
facet normal 0 0 1
  outer loop
    vertex 2000 -3.33102434524335e-11 0
    vertex 1789.641934821999 117.2890151799616 0
    vertex 1796.291406472043 -117.074117016361 0
  endloop
endfacet
facet normal 0 -0 1
  outer loop
    vertex -700.0000000005191 -500 0
    vertex -565.8877309870081 -242.2443998190081 0
    vertex -812.4588403912951 -321.8759005235535 0
  endloop
endfacet
facet normal 0 0 1
  outer loop
    vertex -1000 -250.0000000000111 0
    vertex -1000 -500 0
    vertex -812.4588403912951 -321.8759005235535 0
  endloop
endfacet
facet normal 0 0 1
  outer loop
    vertex -1000 500 0
    vertex -1000 250.0000000000222 0
    vertex -811.0827673534518 321.8361394910035 0
  endloop
endfacet
facet normal 0 -0 1
  outer loop
    vertex 2000 -500 0
    vertex 2000 -250.0000000000222 0
    vertex 1812.306084837074 -321.7905204281337 0
  endloop
endfacet
facet normal 0 -0 1
  outer loop
    vertex 2000 250.0000000000111 0
    vertex 2000 500 0
    vertex 1811.113208082347 321.6978798566881 0
  endloop
endfacet
facet normal 0 0 1
  outer loop
    vertex -565.7659485608798 241.8916822753897 0
    vertex -789.6478882083057 117.2890151796052 0
    vertex -619.1068774636474 -0.05465147524943464 0
  endloop
endfacet
facet normal 0 0 1
  outer loop
    vertex 1565.23901771508 -241.8784851242854 0
    vertex 1699.999999998246 -500 0
    vertex 1812.306084837074 -321.7905204281337 0
  endloop
endfacet
facet normal 0 0 1
  outer loop
    vertex -565.8877309870081 -242.2443998190081 0
    vertex -796.4064709689476 -117.1351027987482 0
    vertex -812.4588403912951 -321.8759005235535 0
  endloop
endfacet
facet normal 0 0 1
  outer loop
    vertex 1789.641934821999 117.2890151799616 0
    vertex 1565.92410558939 241.2003841034677 0
    vertex 1618.892284961204 -0.1766082091764261 0
  endloop
endfacet
facet normal 0 0 1
  outer loop
    vertex -391.6590772059267 -0.1837551640515338 0
    vertex -565.7659485608798 241.8916822753897 0
    vertex -619.1068774636474 -0.05465147524943464 0
  endloop
endfacet
facet normal 0 -0 1
  outer loop
    vertex -565.8877309870081 -242.2443998190081 0
    vertex -391.6590772059267 -0.1837551640515338 0
    vertex -619.1068774636474 -0.05465147524943464 0
  endloop
endfacet
facet normal 0 0 1
  outer loop
    vertex 1796.291406472043 -117.074117016361 0
    vertex 1565.23901771508 -241.8784851242854 0
    vertex 1812.306084837074 -321.7905204281337 0
  endloop
endfacet
facet normal 0 0 1
  outer loop
    vertex 1565.92410558939 241.2003841034677 0
    vertex 1390.83994446119 -0.7730546069716706 0
    vertex 1618.892284961204 -0.1766082091764261 0
  endloop
endfacet
facet normal -0 0 1
  outer loop
    vertex -796.4064709689476 -117.1351027987482 0
    vertex -565.8877309870081 -242.2443998190081 0
    vertex -619.1068774636474 -0.05465147524943464 0
  endloop
endfacet
facet normal -0 0 1
  outer loop
    vertex 1390.83994446119 -0.7730546069716706 0
    vertex 1565.23901771508 -241.8784851242854 0
    vertex 1618.892284961204 -0.1766082091764261 0
  endloop
endfacet
facet normal 0 0 1
  outer loop
    vertex 1565.23901771508 -241.8784851242854 0
    vertex 1796.291406472043 -117.074117016361 0
    vertex 1618.892284961204 -0.1766082091764261 0
  endloop
endfacet
facet normal 0 0 1
  outer loop
    vertex -796.4064709689476 -117.1351027987482 0
    vertex -1000 -250.0000000000111 0
    vertex -812.4588403912951 -321.8759005235535 0
  endloop
endfacet
facet normal -0 0 1
  outer loop
    vertex -1000 250.0000000000222 0
    vertex -789.6478882083057 117.2890151796052 0
    vertex -811.0827673534518 321.8361394910035 0
  endloop
endfacet
facet normal 0 0 1
  outer loop
    vertex 2000 -250.0000000000222 0
    vertex 1796.291406472043 -117.074117016361 0
    vertex 1812.306084837074 -321.7905204281337 0
  endloop
endfacet
facet normal 0 0 1
  outer loop
    vertex 1789.641934821999 117.2890151799616 0
    vertex 2000 250.0000000000111 0
    vertex 1811.113208082347 321.6978798566881 0
  endloop
endfacet
facet normal 0 0 1
  outer loop
    vertex -789.6478882083057 117.2890151796052 0
    vertex -796.4064709689476 -117.1351027987482 0
    vertex -619.1068774636474 -0.05465147524943464 0
  endloop
endfacet
facet normal 0 0 1
  outer loop
    vertex 1796.291406472043 -117.074117016361 0
    vertex 1789.641934821999 117.2890151799616 0
    vertex 1618.892284961204 -0.1766082091764261 0
  endloop
endfacet
endsolid Created by Gmsh
