solid Created by Gmsh
facet normal 0 0 1
  outer loop
    vertex 6.827933047409243 5.93071755644648 0
    vertex 5.441298769876298 8.301604653758398 0
    vertex 3.99482302690076 5.43464529839549 0
  endloop
endfacet
facet normal -0 0 1
  outer loop
    vertex 19.14172415200974 7.07568423441813 0
    vertex 20.58069838320644 4.688087972540838 0
    vertex 22.00122582134598 7.563496784674944 0
  endloop
endfacet
facet normal 0 0 1
  outer loop
    vertex 22.00122582134598 7.563496784674944 0
    vertex 20.58069838320644 4.688087972540838 0
    vertex 22.89084894419949 4.860196155131931 0
  endloop
endfacet
facet normal 0 -0 1
  outer loop
    vertex 3.99482302690076 5.43464529839549 0
    vertex 5.441298769876298 8.301604653758398 0
    vertex 3.111964316566735 8.137704231396546 0
  endloop
endfacet
facet normal 0 0 1
  outer loop
    vertex 16.03881680191371 11.44275547235949 0
    vertex 14.40092360773468 8.923864161208705 0
    vertex 17.51506613555456 9.158014015927382 0
  endloop
endfacet
facet normal 0 -0 1
  outer loop
    vertex 13.08393704784165 1.548485735001381 0
    vertex 14.70832868841541 4.083982823160476 0
    vertex 11.48748653936745 3.886656497184065 0
  endloop
endfacet
facet normal 0 0 1
  outer loop
    vertex 19.24682698075669 1.728283607746925 0
    vertex 22.41609384067991 1.95125396680324 0
    vertex 20.58069838320644 4.688087972540838 0
  endloop
endfacet
facet normal 0 -0 1
  outer loop
    vertex 6.827933047409243 5.93071755644648 0
    vertex 8.329536010461556 8.610797710568363 0
    vertex 5.441298769876298 8.301604653758398 0
  endloop
endfacet
facet normal 0 0 1
  outer loop
    vertex 5.222222222219319 14 0
    vertex 3.582246514796975 11.05018894407608 0
    vertex 6.763557842536377 11.26662755295281 0
  endloop
endfacet
facet normal 0 -0 1
  outer loop
    vertex 20.77777777778078 -1 0
    vertex 22.41609384067991 1.95125396680324 0
    vertex 19.24682698075669 1.728283607746925 0
  endloop
endfacet
facet normal 0 0 1
  outer loop
    vertex 22.16799654253269 11.13671494072403 0
    vertex 20.77777777778071 14 0
    vertex 19.048610892087 11.49138554970346 0
  endloop
endfacet
facet normal -0 0 1
  outer loop
    vertex 17.75563728867333 4.337900463140351 0
    vertex 19.24682698075669 1.728283607746925 0
    vertex 20.58069838320644 4.688087972540838 0
  endloop
endfacet
facet normal 0 0 1
  outer loop
    vertex 6.763557842536377 11.26662755295281 0
    vertex 3.582246514796975 11.05018894407608 0
    vertex 5.441298769876298 8.301604653758398 0
  endloop
endfacet
facet normal 0 0 1
  outer loop
    vertex 5.222222222219319 14 0
    vertex 2.111111111109675 14 0
    vertex 3.582246514796975 11.05018894407608 0
  endloop
endfacet
facet normal 0 0 1
  outer loop
    vertex 20.77777777778078 -1 0
    vertex 23.88888888889037 -1 0
    vertex 22.41609384067991 1.95125396680324 0
  endloop
endfacet
facet normal 0 0 1
  outer loop
    vertex 2.111111111110032 -1 0
    vertex 5.222222222219624 -1 0
    vertex 3.828699042396947 1.861597487769395 0
  endloop
endfacet
facet normal 0 0 1
  outer loop
    vertex 23.88888888889035 14 0
    vertex 20.77777777778071 14 0
    vertex 22.16799654253269 11.13671494072403 0
  endloop
endfacet
facet normal 0 -0 1
  outer loop
    vertex 8.333333333329218 -1 0
    vertex 9.888888888884015 1.694301256216939 0
    vertex 6.936836122523588 1.528444661697343 0
  endloop
endfacet
facet normal 0 0 1
  outer loop
    vertex 8.329536010461556 8.610797710568363 0
    vertex 6.763557842536377 11.26662755295281 0
    vertex 5.441298769876298 8.301604653758398 0
  endloop
endfacet
facet normal 0 0 1
  outer loop
    vertex 3.828699042396947 1.861597487769395 0
    vertex 5.222222222219624 -1 0
    vertex 6.936836122523588 1.528444661697343 0
  endloop
endfacet
facet normal 0 0 1
  outer loop
    vertex 17.75563728867333 4.337900463140351 0
    vertex 20.58069838320644 4.688087972540838 0
    vertex 19.14172415200974 7.07568423441813 0
  endloop
endfacet
facet normal 0 0 1
  outer loop
    vertex 8.333333333328959 14 0
    vertex 5.222222222219319 14 0
    vertex 6.763557842536377 11.26662755295281 0
  endloop
endfacet
facet normal 0 0 1
  outer loop
    vertex 17.66666666667119 -1 0
    vertex 20.77777777778078 -1 0
    vertex 19.24682698075669 1.728283607746925 0
  endloop
endfacet
facet normal 0 0 1
  outer loop
    vertex 9.887989429324319 11.30664725400684 0
    vertex 8.333333333328959 14 0
    vertex 6.763557842536377 11.26662755295281 0
  endloop
endfacet
facet normal -0 0 1
  outer loop
    vertex 16.18433793831039 1.651106458867959 0
    vertex 17.66666666667119 -1 0
    vertex 19.24682698075669 1.728283607746925 0
  endloop
endfacet
facet normal 0 0 1
  outer loop
    vertex 17.66666666667107 14 0
    vertex 16.03881680191371 11.44275547235949 0
    vertex 19.048610892087 11.49138554970346 0
  endloop
endfacet
facet normal 0 0 1
  outer loop
    vertex 20.77777777778071 14 0
    vertex 17.66666666667107 14 0
    vertex 19.048610892087 11.49138554970346 0
  endloop
endfacet
facet normal 0 0 1
  outer loop
    vertex 16.18433793831039 1.651106458867959 0
    vertex 19.24682698075669 1.728283607746925 0
    vertex 17.75563728867333 4.337900463140351 0
  endloop
endfacet
facet normal -0 0 1
  outer loop
    vertex 14.40092360773468 8.923864161208705 0
    vertex 16.11433243007601 6.764946651846579 0
    vertex 17.51506613555456 9.158014015927382 0
  endloop
endfacet
facet normal 0 0 1
  outer loop
    vertex 9.887989429324319 11.30664725400684 0
    vertex 6.763557842536377 11.26662755295281 0
    vertex 8.329536010461556 8.610797710568363 0
  endloop
endfacet
facet normal 0 0 1
  outer loop
    vertex 9.88452991168014 5.92458583309205 0
    vertex 8.329536010461556 8.610797710568363 0
    vertex 6.827933047409243 5.93071755644648 0
  endloop
endfacet
facet normal 0 0 1
  outer loop
    vertex 16.03881680191371 11.44275547235949 0
    vertex 14.55555555556143 14 0
    vertex 12.90217582121336 11.37746181820189 0
  endloop
endfacet
facet normal 0 0 1
  outer loop
    vertex 5.222222222219624 -1 0
    vertex 8.333333333329218 -1 0
    vertex 6.936836122523588 1.528444661697343 0
  endloop
endfacet
facet normal 0 0 1
  outer loop
    vertex 14.55555555556143 14 0
    vertex 11.44444444444192 14 0
    vertex 12.90217582121336 11.37746181820189 0
  endloop
endfacet
facet normal 0 0 1
  outer loop
    vertex 11.36833771724967 8.654602353962188 0
    vertex 8.329536010461556 8.610797710568363 0
    vertex 9.88452991168014 5.92458583309205 0
  endloop
endfacet
facet normal 0 0 1
  outer loop
    vertex 9.888888888884015 1.694301256216939 0
    vertex 11.44444444443881 -1 0
    vertex 13.08393704784165 1.548485735001381 0
  endloop
endfacet
facet normal 0 0 1
  outer loop
    vertex 11.44444444443881 -1 0
    vertex 14.55555555555828 -1 0
    vertex 13.08393704784165 1.548485735001381 0
  endloop
endfacet
facet normal 0 0 1
  outer loop
    vertex 11.44444444444192 14 0
    vertex 8.333333333328959 14 0
    vertex 9.887989429324319 11.30664725400684 0
  endloop
endfacet
facet normal 0 0 1
  outer loop
    vertex 14.55555555555828 -1 0
    vertex 17.66666666667119 -1 0
    vertex 16.18433793831039 1.651106458867959 0
  endloop
endfacet
facet normal 0 -0 1
  outer loop
    vertex 14.55555555555828 -1 0
    vertex 16.18433793831039 1.651106458867959 0
    vertex 13.08393704784165 1.548485735001381 0
  endloop
endfacet
facet normal 0 0 1
  outer loop
    vertex 17.66666666667107 14 0
    vertex 14.55555555556143 14 0
    vertex 16.03881680191371 11.44275547235949 0
  endloop
endfacet
facet normal 0 0 1
  outer loop
    vertex 8.333333333329218 -1 0
    vertex 11.44444444443881 -1 0
    vertex 9.888888888884015 1.694301256216939 0
  endloop
endfacet
facet normal 0 0 1
  outer loop
    vertex 9.887989429324319 11.30664725400684 0
    vertex 8.329536010461556 8.610797710568363 0
    vertex 11.36833771724967 8.654602353962188 0
  endloop
endfacet
facet normal 0 0 1
  outer loop
    vertex 14.70832868841541 4.083982823160476 0
    vertex 12.9884376917008 6.269255540523946 0
    vertex 11.48748653936745 3.886656497184065 0
  endloop
endfacet
facet normal 0 0 1
  outer loop
    vertex 11.44444444444192 14 0
    vertex 9.887989429324319 11.30664725400684 0
    vertex 12.90217582121336 11.37746181820189 0
  endloop
endfacet
facet normal 0 0 1
  outer loop
    vertex 11.36833771724967 8.654602353962188 0
    vertex 9.88452991168014 5.92458583309205 0
    vertex 12.9884376917008 6.269255540523946 0
  endloop
endfacet
facet normal -0 0 1
  outer loop
    vertex 9.887989429324319 11.30664725400684 0
    vertex 11.36833771724967 8.654602353962188 0
    vertex 12.90217582121336 11.37746181820189 0
  endloop
endfacet
facet normal 0 -0 1
  outer loop
    vertex 17.75563728867333 4.337900463140351 0
    vertex 19.14172415200974 7.07568423441813 0
    vertex 16.11433243007601 6.764946651846579 0
  endloop
endfacet
facet normal 0 0 1
  outer loop
    vertex -1 8.000000000010203 0
    vertex -1 5.000000000012909 0
    vertex 1.337955310119305 6.491882693090222 0
  endloop
endfacet
facet normal 0 -0 1
  outer loop
    vertex 27 4.999999999990432 0
    vertex 27 7.999999999987699 0
    vertex 24.66075869773538 6.508127725163149 0
  endloop
endfacet
facet normal 0 0 1
  outer loop
    vertex 12.9884376917008 6.269255540523946 0
    vertex 16.11433243007601 6.764946651846579 0
    vertex 14.40092360773468 8.923864161208705 0
  endloop
endfacet
facet normal 0 0 1
  outer loop
    vertex 16.11433243007601 6.764946651846579 0
    vertex 12.9884376917008 6.269255540523946 0
    vertex 14.70832868841541 4.083982823160476 0
  endloop
endfacet
facet normal 0 0 1
  outer loop
    vertex 24.5982854012552 9.435484124994366 0
    vertex 22.16799654253269 11.13671494072403 0
    vertex 22.00122582134598 7.563496784674944 0
  endloop
endfacet
facet normal -0 0 1
  outer loop
    vertex 1.400206660114921 3.564275095097904 0
    vertex 3.828699042396947 1.861597487769395 0
    vertex 3.99482302690076 5.43464529839549 0
  endloop
endfacet
facet normal 0 -0 1
  outer loop
    vertex 24.66075869773538 6.508127725163149 0
    vertex 27 7.999999999987699 0
    vertex 24.5982854012552 9.435484124994366 0
  endloop
endfacet
facet normal -0 0 1
  outer loop
    vertex -1 8.000000000010203 0
    vertex 1.337955310119305 6.491882693090222 0
    vertex 1.203497961140336 9.410199567662545 0
  endloop
endfacet
facet normal 0 0 1
  outer loop
    vertex 1.337955310119305 6.491882693090222 0
    vertex -1 5.000000000012909 0
    vertex 1.400206660114921 3.564275095097904 0
  endloop
endfacet
facet normal 0 0 1
  outer loop
    vertex 27 4.999999999990432 0
    vertex 24.66075869773538 6.508127725163149 0
    vertex 24.79546797802972 3.590014326477487 0
  endloop
endfacet
facet normal 0 0 1
  outer loop
    vertex 24.66075869773538 6.508127725163149 0
    vertex 24.5982854012552 9.435484124994366 0
    vertex 22.00122582134598 7.563496784674944 0
  endloop
endfacet
facet normal 0 0 1
  outer loop
    vertex 1.337955310119305 6.491882693090222 0
    vertex 1.400206660114921 3.564275095097904 0
    vertex 3.99482302690076 5.43464529839549 0
  endloop
endfacet
facet normal 0 0 1
  outer loop
    vertex 16.03881680191371 11.44275547235949 0
    vertex 12.90217582121336 11.37746181820189 0
    vertex 14.40092360773468 8.923864161208705 0
  endloop
endfacet
facet normal 0 0 1
  outer loop
    vertex -1 10.99999999999354 0
    vertex -1 8.000000000010203 0
    vertex 1.203497961140336 9.410199567662545 0
  endloop
endfacet
facet normal 0 0 1
  outer loop
    vertex -1 5.000000000012909 0
    vertex -1 2.000000000006454 0
    vertex 1.400206660114921 3.564275095097904 0
  endloop
endfacet
facet normal 0 -0 1
  outer loop
    vertex 27 7.999999999987699 0
    vertex 27 10.99999999999385 0
    vertex 24.5982854012552 9.435484124994366 0
  endloop
endfacet
facet normal 0 -0 1
  outer loop
    vertex 27 1.999999999998959 0
    vertex 27 4.999999999990432 0
    vertex 24.79546797802972 3.590014326477487 0
  endloop
endfacet
facet normal -0 0 1
  outer loop
    vertex 11.36833771724967 8.654602353962188 0
    vertex 12.9884376917008 6.269255540523946 0
    vertex 14.40092360773468 8.923864161208705 0
  endloop
endfacet
facet normal 0 0 1
  outer loop
    vertex 13.08393704784165 1.548485735001381 0
    vertex 16.18433793831039 1.651106458867959 0
    vertex 14.70832868841541 4.083982823160476 0
  endloop
endfacet
facet normal 0 0 1
  outer loop
    vertex 17.75563728867333 4.337900463140351 0
    vertex 16.11433243007601 6.764946651846579 0
    vertex 14.70832868841541 4.083982823160476 0
  endloop
endfacet
facet normal 0 0 1
  outer loop
    vertex 24.66075869773538 6.508127725163149 0
    vertex 22.00122582134598 7.563496784674944 0
    vertex 22.89084894419949 4.860196155131931 0
  endloop
endfacet
facet normal -0 0 1
  outer loop
    vertex 1.337955310119305 6.491882693090222 0
    vertex 3.99482302690076 5.43464529839549 0
    vertex 3.111964316566735 8.137704231396546 0
  endloop
endfacet
facet normal -0 0 1
  outer loop
    vertex 20.58069838320644 4.688087972540838 0
    vertex 22.41609384067991 1.95125396680324 0
    vertex 22.89084894419949 4.860196155131931 0
  endloop
endfacet
facet normal 0 -0 1
  outer loop
    vertex 22.00122582134598 7.563496784674944 0
    vertex 22.16799654253269 11.13671494072403 0
    vertex 19.97287081190428 9.255969005691686 0
  endloop
endfacet
facet normal 0 0 1
  outer loop
    vertex 3.99482302690076 5.43464529839549 0
    vertex 3.828699042396947 1.861597487769395 0
    vertex 5.991817649382653 3.710946559883661 0
  endloop
endfacet
facet normal 0 0 1
  outer loop
    vertex 5.441298769876298 8.301604653758398 0
    vertex 3.582246514796975 11.05018894407608 0
    vertex 3.111964316566735 8.137704231396546 0
  endloop
endfacet
facet normal 0 0 1
  outer loop
    vertex -1 -1 0
    vertex 2.111111111110032 -1 0
    vertex 1.195426173026113 1.163569529230856 0
  endloop
endfacet
facet normal 0 0 1
  outer loop
    vertex 27 14 0
    vertex 23.88888888889035 14 0
    vertex 24.80457382697411 11.83643047076936 0
  endloop
endfacet
facet normal 0 0 1
  outer loop
    vertex 23.88888888889037 -1 0
    vertex 27 -1 0
    vertex 24.86067449194814 1.14917035425163 0
  endloop
endfacet
facet normal 0 0 1
  outer loop
    vertex 2.111111111109675 14 0
    vertex -1 14 0
    vertex 1.139185269330729 11.85091590173467 0
  endloop
endfacet
facet normal 0 0 1
  outer loop
    vertex -1 14 0
    vertex -1 10.99999999999354 0
    vertex 1.139185269330729 11.85091590173467 0
  endloop
endfacet
facet normal 0 0 1
  outer loop
    vertex -1 2.000000000006454 0
    vertex -1 -1 0
    vertex 1.195426173026113 1.163569529230856 0
  endloop
endfacet
facet normal 0 -0 1
  outer loop
    vertex 27 -1 0
    vertex 27 1.999999999998959 0
    vertex 24.86067449194814 1.14917035425163 0
  endloop
endfacet
facet normal 0 -0 1
  outer loop
    vertex 27 10.99999999999385 0
    vertex 27 14 0
    vertex 24.80457382697411 11.83643047076936 0
  endloop
endfacet
facet normal 0 0 1
  outer loop
    vertex 22.16799654253269 11.13671494072403 0
    vertex 19.048610892087 11.49138554970346 0
    vertex 19.97287081190428 9.255969005691686 0
  endloop
endfacet
facet normal -0 0 1
  outer loop
    vertex 3.828699042396947 1.861597487769395 0
    vertex 6.936836122523588 1.528444661697343 0
    vertex 5.991817649382653 3.710946559883661 0
  endloop
endfacet
facet normal 0 0 1
  outer loop
    vertex 22.41609384067991 1.95125396680324 0
    vertex 24.79546797802972 3.590014326477487 0
    vertex 22.89084894419949 4.860196155131931 0
  endloop
endfacet
facet normal 0 0 1
  outer loop
    vertex 3.582246514796975 11.05018894407608 0
    vertex 1.203497961140336 9.410199567662545 0
    vertex 3.111964316566735 8.137704231396546 0
  endloop
endfacet
facet normal 0 0 1
  outer loop
    vertex 12.90217582121336 11.37746181820189 0
    vertex 11.36833771724967 8.654602353962188 0
    vertex 14.40092360773468 8.923864161208705 0
  endloop
endfacet
facet normal 0 -0 1
  outer loop
    vertex 16.18433793831039 1.651106458867959 0
    vertex 17.75563728867333 4.337900463140351 0
    vertex 14.70832868841541 4.083982823160476 0
  endloop
endfacet
facet normal 0 0 1
  outer loop
    vertex 6.936836122523588 1.528444661697343 0
    vertex 9.888888888884015 1.694301256216939 0
    vertex 8.370797007682723 3.799327795109599 0
  endloop
endfacet
facet normal 0 0 1
  outer loop
    vertex 19.048610892087 11.49138554970346 0
    vertex 16.03881680191371 11.44275547235949 0
    vertex 17.51506613555456 9.158014015927382 0
  endloop
endfacet
facet normal 0 0 1
  outer loop
    vertex 9.88452991168014 5.92458583309205 0
    vertex 6.827933047409243 5.93071755644648 0
    vertex 8.370797007682723 3.799327795109599 0
  endloop
endfacet
facet normal 0 0 1
  outer loop
    vertex 16.11433243007601 6.764946651846579 0
    vertex 19.14172415200974 7.07568423441813 0
    vertex 17.51506613555456 9.158014015927382 0
  endloop
endfacet
facet normal 0 0 1
  outer loop
    vertex 9.88452991168014 5.92458583309205 0
    vertex 8.370797007682723 3.799327795109599 0
    vertex 11.48748653936745 3.886656497184065 0
  endloop
endfacet
facet normal -0 0 1
  outer loop
    vertex 9.888888888884015 1.694301256216939 0
    vertex 13.08393704784165 1.548485735001381 0
    vertex 11.48748653936745 3.886656497184065 0
  endloop
endfacet
facet normal -0 0 1
  outer loop
    vertex 8.370797007682723 3.799327795109599 0
    vertex 9.888888888884015 1.694301256216939 0
    vertex 11.48748653936745 3.886656497184065 0
  endloop
endfacet
facet normal 0 0 1
  outer loop
    vertex 12.9884376917008 6.269255540523946 0
    vertex 9.88452991168014 5.92458583309205 0
    vertex 11.48748653936745 3.886656497184065 0
  endloop
endfacet
facet normal 0 0 1
  outer loop
    vertex 3.582246514796975 11.05018894407608 0
    vertex 2.111111111109675 14 0
    vertex 1.139185269330729 11.85091590173467 0
  endloop
endfacet
facet normal 0 0 1
  outer loop
    vertex 22.41609384067991 1.95125396680324 0
    vertex 23.88888888889037 -1 0
    vertex 24.86067449194814 1.14917035425163 0
  endloop
endfacet
facet normal 0 -0 1
  outer loop
    vertex 2.111111111110032 -1 0
    vertex 3.828699042396947 1.861597487769395 0
    vertex 1.195426173026113 1.163569529230856 0
  endloop
endfacet
facet normal 0 0 1
  outer loop
    vertex 23.88888888889035 14 0
    vertex 22.16799654253269 11.13671494072403 0
    vertex 24.80457382697411 11.83643047076936 0
  endloop
endfacet
facet normal 0 0 1
  outer loop
    vertex 24.79546797802972 3.590014326477487 0
    vertex 24.66075869773538 6.508127725163149 0
    vertex 22.89084894419949 4.860196155131931 0
  endloop
endfacet
facet normal 0 0 1
  outer loop
    vertex 1.203497961140336 9.410199567662545 0
    vertex 1.337955310119305 6.491882693090222 0
    vertex 3.111964316566735 8.137704231396546 0
  endloop
endfacet
facet normal 0 -0 1
  outer loop
    vertex 1.203497961140336 9.410199567662545 0
    vertex 3.582246514796975 11.05018894407608 0
    vertex 1.139185269330729 11.85091590173467 0
  endloop
endfacet
facet normal 0 0 1
  outer loop
    vertex 3.828699042396947 1.861597487769395 0
    vertex 1.400206660114921 3.564275095097904 0
    vertex 1.195426173026113 1.163569529230856 0
  endloop
endfacet
facet normal -0 0 1
  outer loop
    vertex 22.16799654253269 11.13671494072403 0
    vertex 24.5982854012552 9.435484124994366 0
    vertex 24.80457382697411 11.83643047076936 0
  endloop
endfacet
facet normal 0 0 1
  outer loop
    vertex 24.79546797802972 3.590014326477487 0
    vertex 22.41609384067991 1.95125396680324 0
    vertex 24.86067449194814 1.14917035425163 0
  endloop
endfacet
facet normal -0 0 1
  outer loop
    vertex -1 10.99999999999354 0
    vertex 1.203497961140336 9.410199567662545 0
    vertex 1.139185269330729 11.85091590173467 0
  endloop
endfacet
facet normal 0 0 1
  outer loop
    vertex 1.400206660114921 3.564275095097904 0
    vertex -1 2.000000000006454 0
    vertex 1.195426173026113 1.163569529230856 0
  endloop
endfacet
facet normal 0 0 1
  outer loop
    vertex 27 1.999999999998959 0
    vertex 24.79546797802972 3.590014326477487 0
    vertex 24.86067449194814 1.14917035425163 0
  endloop
endfacet
facet normal 0 0 1
  outer loop
    vertex 24.5982854012552 9.435484124994366 0
    vertex 27 10.99999999999385 0
    vertex 24.80457382697411 11.83643047076936 0
  endloop
endfacet
facet normal 0 0 1
  outer loop
    vertex 19.14172415200974 7.07568423441813 0
    vertex 22.00122582134598 7.563496784674944 0
    vertex 19.97287081190428 9.255969005691686 0
  endloop
endfacet
facet normal 0 0 1
  outer loop
    vertex 6.827933047409243 5.93071755644648 0
    vertex 3.99482302690076 5.43464529839549 0
    vertex 5.991817649382653 3.710946559883661 0
  endloop
endfacet
facet normal -0 0 1
  outer loop
    vertex 17.51506613555456 9.158014015927382 0
    vertex 19.14172415200974 7.07568423441813 0
    vertex 19.97287081190428 9.255969005691686 0
  endloop
endfacet
facet normal 0 0 1
  outer loop
    vertex 8.370797007682723 3.799327795109599 0
    vertex 6.827933047409243 5.93071755644648 0
    vertex 5.991817649382653 3.710946559883661 0
  endloop
endfacet
facet normal 0 -0 1
  outer loop
    vertex 6.936836122523588 1.528444661697343 0
    vertex 8.370797007682723 3.799327795109599 0
    vertex 5.991817649382653 3.710946559883661 0
  endloop
endfacet
facet normal 0 0 1
  outer loop
    vertex 19.048610892087 11.49138554970346 0
    vertex 17.51506613555456 9.158014015927382 0
    vertex 19.97287081190428 9.255969005691686 0
  endloop
endfacet
endsolid Created by Gmsh
